<?xml version="1.0" encoding="iso-8859-1"?>
<!-- Generator: Adobe Illustrator 19.0.0, SVG Export Plug-In . SVG Version: 6.00 Build 0)  -->
<svg version="1.1" id="Capa_1" xmlns="http://www.w3.org/2000/svg" xmlns:xlink="http://www.w3.org/1999/xlink" x="0px" y="0px"
	 viewBox="0 0 496 496" style="enable-background:new 0 0 496 496;" xml:space="preserve">
<rect x="93.44" y="456" style="fill:#FFA64D;" width="224" height="24"/>
<g>
	<path style="fill:#333333;" d="M381.944,411.608c-11.152-35.696-42.24-62.432-79.2-68.12l-41.304-6.352v-8.288
		c33.416-19.4,56-55.496,56-96.848v-70.064c0-23.12-18.816-41.936-41.944-41.936c-11.192,0-21.728,4.36-29.664,12.28
		c-7.544,7.552-17.584,11.72-28.272,11.72h-82.792c-19.832,0-36.416,14.048-40.392,32.712c-6.296,1.128-12.024,3.776-16.936,7.488
		V144c0-70.576,57.424-128,128-128s128,57.424,128,128h16c0-79.4-64.6-144-144-144s-144,64.6-144,144v72
		c0,20.176,15.072,36.736,34.512,39.448c6.704,31.328,26.568,57.776,53.488,73.4v8.288l-41.304,6.352
		c-36.968,5.688-68.048,32.424-79.2,68.12L2.56,496h405.76L381.944,411.608z M77.44,216c0-10.416,6.712-19.216,16-22.528V232
		c0,2.24,0.208,4.424,0.336,6.632C84.312,235.416,77.44,226.536,77.44,216z M109.44,232v-46.672
		c0-13.968,11.36-25.328,25.328-25.328h82.792c14.968,0,29.024-5.832,39.592-16.4c4.904-4.904,11.424-7.6,18.344-7.6
		c14.304,0,25.944,11.632,25.944,25.936V232c0,52.936-43.064,96-96,96S109.44,284.936,109.44,232z M245.44,336.488v6.336
		c-0.896,2.728-4.824,12.704-16,19.264v-20.744C234.944,340.136,240.272,338.472,245.44,336.488z M213.44,343.592V367.4
		c-2.496,0.352-5.12,0.6-8,0.6s-5.504-0.248-8-0.6v-23.808c2.656,0.192,5.296,0.408,8,0.408S210.784,343.784,213.44,343.592z
		 M181.44,341.344v20.76c-11.16-6.536-15.088-16.488-16-19.28v-6.336C170.608,338.472,175.936,340.136,181.44,341.344z
		 M93.504,423.008L86.376,480H24.32l19.88-63.624c9.336-29.896,35.392-52.304,66.36-57.072l41.64-6.408
		c6.296,13.44,22.424,31.104,53.24,31.104s46.944-17.664,53.232-31.104l41.64,6.408c30.968,4.768,57.016,27.168,66.36,57.072
		L386.56,480h-62.056l-7.128-56.992l-15.872,1.984L308.376,480H102.504l6.872-55.008L93.504,423.008z"/>
	<path style="fill:#333333;" d="M153.44,232c11.024,0,20-8.968,20-20s-8.976-20-20-20s-20,8.968-20,20S142.416,232,153.44,232z
		 M153.44,208c2.208,0,4,1.8,4,4s-1.792,4-4,4s-4-1.8-4-4S151.232,208,153.44,208z"/>
	<path style="fill:#333333;" d="M257.44,232c11.024,0,20-8.968,20-20s-8.976-20-20-20s-20,8.968-20,20S246.416,232,257.44,232z
		 M257.44,208c2.208,0,4,1.8,4,4s-1.792,4-4,4s-4-1.8-4-4S255.232,208,257.44,208z"/>
	<polygon style="fill:#333333;" points="213.44,288 213.44,296 229.44,296 229.44,288 245.44,288 245.44,296 261.44,296 261.44,288 
		277.44,288 277.44,272 261.44,272 261.44,264 245.44,264 245.44,272 229.44,272 229.44,264 213.44,264 213.44,272 197.44,272 
		197.44,264 181.44,264 181.44,272 165.44,272 165.44,264 149.44,264 149.44,272 133.44,272 133.44,288 149.44,288 149.44,296 
		165.44,296 165.44,288 181.44,288 181.44,296 197.44,296 197.44,288 	"/>
</g>
<path style="fill:#FFA64D;" d="M301.44,304V192c0-35.288,28.712-64,64-64h64c35.288,0,64,28.712,64,64s-28.712,64-64,64h-56
	L301.44,304z"/>
<polygon style="fill:#333333;" points="441.56,174.856 433.32,161.144 397.44,182.672 361.56,161.144 353.32,174.856 381.888,192 
	353.32,209.144 361.56,222.856 397.44,201.328 433.32,222.856 441.56,209.144 412.992,192 "/>
<g>
</g>
<g>
</g>
<g>
</g>
<g>
</g>
<g>
</g>
<g>
</g>
<g>
</g>
<g>
</g>
<g>
</g>
<g>
</g>
<g>
</g>
<g>
</g>
<g>
</g>
<g>
</g>
<g>
</g>
</svg>
